<?xml version="1.0" encoding="UTF-8"?>
<svg version="1.1" xmlns="http://www.w3.org/2000/svg" width="180" height="180">
<path d="M0 0 C59.4 0 118.8 0 180 0 C180 59.4 180 118.8 180 180 C120.6 180 61.2 180 0 180 C0 120.6 0 61.2 0 0 Z M46 41 C46 73.34 46 105.68 46 139 C54.58 139 63.16 139 72 139 C72.02254916 126.37004197 72.040914 113.7400972 72.05181217 101.11012363 C72.05704146 95.24617836 72.06413994 89.38224751 72.07543945 83.51831055 C72.0862667 77.86438288 72.09227649 72.21046913 72.09487724 66.55653191 C72.09673179 64.3942639 72.10035295 62.23199669 72.10573006 60.06973457 C72.11293833 57.05241343 72.11399103 54.03515057 72.11352539 51.01782227 C72.11712067 50.1143959 72.12071594 49.21096954 72.12442017 48.28016663 C72.51539455 44.32446097 72.51539455 44.32446097 71 41 C62.75 41 54.5 41 46 41 Z M75 42 C74.90119203 43.47652664 74.86920755 44.95767236 74.8671875 46.4375 C74.86589844 47.33210938 74.86460938 48.22671875 74.86328125 49.1484375 C74.86714844 50.08945312 74.87101562 51.03046875 74.875 52 C74.87113281 52.94101562 74.86726563 53.88203125 74.86328125 54.8515625 C74.86457031 55.74617188 74.86585937 56.64078125 74.8671875 57.5625 C74.86831543 58.38878906 74.86944336 59.21507813 74.87060547 60.06640625 C74.78735193 62.00679039 74.78735193 62.00679039 76 63 C78.3756852 63.0883967 80.72208674 63.11530305 83.09765625 63.09765625 C83.80651474 63.0962413 84.51537323 63.09482635 85.24571228 63.09336853 C87.51801712 63.08775443 89.79022475 63.07519963 92.0625 63.0625 C93.59960796 63.05748681 95.13671745 63.05292359 96.67382812 63.04882812 C100.44928667 63.0386297 104.22453404 63.01905732 108 63 C108 70.26 108 77.52 108 85 C105.70160156 84.98839844 103.40320313 84.97679687 101.03515625 84.96484375 C98.81779112 84.95705291 96.60042749 84.95097631 94.38305664 84.94506836 C92.83780234 84.9400286 91.29255284 84.9331968 89.74731445 84.92456055 C87.53074971 84.91247924 85.31424782 84.90676827 83.09765625 84.90234375 C82.4028566 84.89718246 81.70805695 84.89202118 80.99220276 84.88670349 C79.3277067 84.88650723 77.66334501 84.93810871 76 85 C74.78356708 85.99483202 74.78356708 85.99483202 74.88647461 87.94946289 C74.89171143 88.7821167 74.89694824 89.61477051 74.90234375 90.47265625 C74.90556641 91.37177734 74.90878906 92.27089844 74.91210938 93.19726562 C74.92048828 94.14279297 74.92886719 95.08832031 74.9375 96.0625 C74.94201172 97.01189453 74.94652344 97.96128906 74.95117188 98.93945312 C74.96299872 101.29299531 74.98093479 103.64650532 75 106 C80.28 106 85.56 106 91 106 C91.66 107.65 92.32 109.3 93 111 C96.50580198 117.46946963 100.3539083 123.72134888 104.54296875 129.76953125 C106.49773253 132.76194444 108.22664937 135.89663639 110 139 C117.92 139 125.84 139 134 139 C135.6824383 126.94252552 131.66870063 121.26664161 124.72265625 111.7734375 C124.22515869 111.11778809 123.72766113 110.46213867 123.21508789 109.78662109 C122 108 122 108 121 105 C121.433125 104.59007812 121.86625 104.18015625 122.3125 103.7578125 C122.869375 103.21898437 123.42625 102.68015625 124 102.125 C124.556875 101.59132812 125.11375 101.05765625 125.6875 100.5078125 C127.21885522 99.08175012 127.21885522 99.08175012 127 97 C127.598125 96.731875 128.19625 96.46375 128.8125 96.1875 C131.19212029 94.89570613 132.39181704 94.18529408 134 92 C134.81165651 86.93040402 134.89798565 81.86290672 134.99536133 76.73461914 C135.03963034 75.05513345 135.11417065 73.3761354 135.22094727 71.69946289 C135.76652526 63.08547794 135.52767007 55.77841548 130.07583618 48.72665405 C124.77017788 42.95481096 119.76570408 40.31334071 111.92930603 39.6743927 C106.99511482 39.5432118 102.11239617 39.77871678 97.1875 40.0625 C95.14015835 40.12428512 93.09261314 40.17967161 91.04492188 40.22851562 C82.44655643 39.7673339 82.44655643 39.7673339 75 42 Z " fill="#000000" transform="translate(0,0)"/>
</svg>
